<?xml version="1.0" encoding="iso-8859-1"?>
<!-- Generator: Adobe Illustrator 17.1.0, SVG Export Plug-In . SVG Version: 6.00 Build 0)  -->
<!DOCTYPE svg PUBLIC "-//W3C//DTD SVG 1.1//EN" "http://www.w3.org/Graphics/SVG/1.1/DTD/svg11.dtd">
<svg version="1.1" id="Capa_1" xmlns="http://www.w3.org/2000/svg" xmlns:xlink="http://www.w3.org/1999/xlink" x="0px" y="0px"
	 viewBox="0 0 452.781 452.781" style="enable-background:new 0 0 452.781 452.781;" xml:space="preserve">
<path d="M439.489,1.73c-1.716-1.425-3.98-2.012-6.17-1.602L16.706,78.064c-4.071,0.762-6.755,4.68-5.993,8.751
	c0.762,4.072,4.688,6.748,8.751,5.994l407.734-76.275v20.879l-262.31,302.229h-19.995v-41.57c0-4.143-3.357-7.5-7.5-7.5h-22.327
	V185.164l21.034,21.033c1.465,1.464,3.385,2.196,5.304,2.196c1.919,0,3.839-0.732,5.304-2.196l17.07-17.07
	c2.929-2.93,2.929-7.678,0-10.607c-2.93-2.928-7.678-2.928-10.607,0l-11.767,11.768l-21.07-21.07
	c11.601-4.972,19.749-16.502,19.749-29.9c0-17.929-14.587-32.516-32.517-32.516s-32.517,14.587-32.517,32.516
	c0,13.402,8.152,24.934,19.757,29.904l-21.066,21.066L61.972,178.52c-2.93-2.928-7.678-2.928-10.608,0
	c-2.929,2.93-2.929,7.678,0,10.607l17.07,17.07c1.465,1.464,3.384,2.196,5.304,2.196c1.919,0,3.839-0.732,5.304-2.196l21.022-21.021
	V290.57H85.238v-41.568c0-4.142-3.357-7.5-7.5-7.5H18.085c-4.143,0-7.5,3.358-7.5,7.5c0,4.143,3.357,7.5,7.5,7.5h52.153v41.568
	c0,4.143,3.357,7.5,7.5,7.5h52.154v41.57c0,4.143,3.357,7.5,7.5,7.5h52.153v41.57c0,4.143,3.357,7.5,7.5,7.5h52.153v41.57
	c0,4.143,3.357,7.5,7.5,7.5c4.143,0,7.5-3.357,7.5-7.5v-49.07c0-4.143-3.357-7.5-7.5-7.5h-52.153v-41.57c0-4.143-3.357-7.5-7.5-7.5
	h-12.297L440.362,45.129c1.185-1.363,1.836-3.109,1.836-4.916V7.5C442.198,5.27,441.205,3.154,439.489,1.73z M107.565,121.801
	c9.658,0,17.517,7.857,17.517,17.516c0,9.658-7.858,17.516-17.517,17.516s-17.517-7.857-17.517-17.516
	C90.049,129.658,97.907,121.801,107.565,121.801z"/>
<g>
</g>
<g>
</g>
<g>
</g>
<g>
</g>
<g>
</g>
<g>
</g>
<g>
</g>
<g>
</g>
<g>
</g>
<g>
</g>
<g>
</g>
<g>
</g>
<g>
</g>
<g>
</g>
<g>
</g>
</svg>
