<?xml version="1.0" encoding="iso-8859-1"?>
<!-- Generator: Adobe Illustrator 17.1.0, SVG Export Plug-In . SVG Version: 6.00 Build 0)  -->
<!DOCTYPE svg PUBLIC "-//W3C//DTD SVG 1.1//EN" "http://www.w3.org/Graphics/SVG/1.1/DTD/svg11.dtd">
<svg version="1.1" id="Capa_1" xmlns="http://www.w3.org/2000/svg" xmlns:xlink="http://www.w3.org/1999/xlink" x="0px" y="0px"
	 viewBox="0 0 450.677 450.677" style="enable-background:new 0 0 450.677 450.677;" xml:space="preserve">
<g>
	<circle cx="45.035" cy="169.528" r="11.784"/>
	<circle cx="77.313" cy="169.527" r="11.784"/>
	<path d="M66.429,210.455c1.566,0,3.315-1.095,4.122-2.382c0.801-1.277,1.168-2.866,1.054-4.364
		c-0.31-4.069-2.926-7.439-6.302-9.533c-1.269-0.786-2.701-1.343-4.129-1.77c-1.428,0.427-2.86,0.983-4.129,1.77
		c-3.375,2.095-5.992,5.464-6.302,9.533c-0.114,1.498,0.254,3.087,1.054,4.364c0.808,1.287,2.557,2.382,4.122,2.382
		c2.902,0,5.255-2.635,5.255-5.886C61.174,207.82,63.526,210.455,66.429,210.455z"/>
	<path d="M443.177,371.106c-32.206,0-58.407-26.2-58.407-58.404c0-0.472-0.049-0.932-0.132-1.379
		c-0.223-24.369-6.923-43.291-19.954-56.229c-16.994-16.872-38.404-16.873-39.261-16.907h-23.67v-29.45
		c27.43-11.675,46.711-38.896,46.711-70.538v-55.75c0-42.248-34.371-76.62-76.619-76.62c-42.249,0-76.62,34.372-76.62,76.62v55.75
		c0,31.639,19.278,58.858,46.704,70.535v29.453h-23.613c-0.924-0.003-22.322,0.038-39.313,16.906
		c-12.942,12.85-19.636,31.605-19.945,55.734c-0.119,0.531-0.187,1.08-0.187,1.647c0,24.885-20.243,45.13-45.125,45.13
		c-24.882,0-45.126-20.245-45.126-45.13v-54.155h17.603c10.035,0,14.841-4.171,17.105-7.67c2.08-3.215,2.631-6.744,2.517-9.876
		c9.631-3.61,16.504-12.911,16.504-23.787c0-7.184-3.031-13.901-8.168-18.645l6.203-24.943c0.147-0.592,0.222-1.199,0.222-1.81
		c0-32.77-26.661-59.431-59.431-59.431s-59.431,26.66-59.431,59.431c0,0.61,0.074,1.218,0.222,1.81l6.203,24.943
		C3.031,203.084,0,209.801,0,216.985c0,10.876,6.873,20.177,16.504,23.787c-0.114,3.132,0.437,6.661,2.517,9.876
		c2.265,3.499,7.071,7.67,17.105,7.67h17.493v54.155c0,33.155,26.972,60.13,60.126,60.13c20.793,0,39.152-10.613,49.953-26.705
		l13.174,92.509c0.526,3.696,3.691,6.442,7.425,6.442h175.094c3.734,0,6.899-2.746,7.425-6.442l12.704-89.22
		c12.682,22.037,36.456,36.919,63.656,36.919c4.142,0,7.5-3.357,7.5-7.5S447.319,371.106,443.177,371.106z M31.615,242.499
		c-0.332-0.576-0.078-2.917,0.618-4.552c1.042-2.32,0.836-5.011-0.546-7.146c-1.382-2.136-3.752-3.425-6.296-3.425
		c-5.729,0-10.391-4.662-10.391-10.392c0-3.822,2.091-7.328,5.457-9.149c3.642-1.971,4.997-6.523,3.026-10.165
		c-0.013-0.023-0.028-0.045-0.042-0.068l-6.689-26.898c0.471-24.094,20.218-43.547,44.422-43.547s43.951,19.453,44.422,43.547
		l-6.689,26.898c-0.013,0.023-0.028,0.044-0.041,0.067c-1.972,3.643-0.617,8.194,3.026,10.166c3.366,1.822,5.457,5.327,5.457,9.149
		c0,5.73-4.662,10.392-10.391,10.392c-2.544,0-4.927,1.259-6.31,3.395c-1.382,2.136-1.601,4.796-0.56,7.116
		c0.723,1.695,0.977,4.036,0.66,4.593c-0.008,0.009-0.962,0.838-4.526,0.838H61.174H36.126
		C32.585,243.318,31.621,242.499,31.615,242.499z M237.503,362.727c2.016-0.09,3.975-0.455,5.821-1.106
		c3.633,5.301,9.73,8.784,16.627,8.784c4.585,0,8.86-1.529,12.282-4.161c3.422,2.632,7.696,4.161,12.281,4.161
		c6.766,0,12.799-3.4,16.458-8.583c1.669,0.531,3.42,0.829,5.213,0.909c3.014,22.368,10.382,44.88,21.96,67.118H215.544
		C227.119,407.615,234.488,385.097,237.503,362.727z M307.09,347.765c-1.582,0-3.054-0.72-4.04-1.975
		c-1.962-2.5-5.289-3.491-8.303-2.474c-3.012,1.02-5.055,3.827-5.096,7.007c-0.037,2.802-2.341,5.081-5.138,5.081
		c-2.379,0-4.431-1.618-4.989-3.936c-0.811-3.369-3.826-5.744-7.292-5.744c-3.466,0-6.48,2.375-7.292,5.745
		c-0.558,2.317-2.609,3.935-4.99,3.935c-2.837,0-5.145-2.31-5.145-5.148c0-0.118,0.013-0.233,0.023-0.347
		c0.313-3.466-1.8-6.691-5.102-7.789c-3.303-1.101-6.926,0.219-8.752,3.181c-0.951,1.543-2.588,2.464-4.379,2.464
		c-2.387,0-4.399-1.635-4.977-3.844l18.535-39.89c3.156,2.627,7.209,4.21,11.626,4.21c3.835,0,7.428-1.184,10.394-3.245
		c2.965,2.062,6.559,3.245,10.392,3.245c3.601,0,6.969-1.067,9.807-2.899l19.667,38.69
		C311.425,346.185,309.438,347.765,307.09,347.765z M288.517,253.195l16.092,31.657c-0.494,1.132-1.625,1.925-2.937,1.925
		c-0.982,0-1.898-0.448-2.512-1.23c-1.964-2.501-5.293-3.491-8.303-2.474c-3.012,1.02-5.054,3.827-5.096,7.007
		c-0.023,1.743-1.456,3.162-3.195,3.162c-1.479,0-2.754-1.007-3.101-2.448c-0.811-3.369-3.826-5.744-7.292-5.744
		c-3.466,0-6.48,2.375-7.292,5.744c-0.347,1.441-1.623,2.448-3.102,2.448c-1.765,0-3.201-1.438-3.201-3.191
		c0.002-0.07,0.009-0.139,0.015-0.208c0.31-3.465-1.804-6.688-5.105-7.784c-3.303-1.098-6.924,0.222-8.749,3.182
		c-0.593,0.963-1.612,1.537-2.725,1.537c-1.349,0-2.506-0.84-2.976-2.024l14.664-31.558H288.517z M271.844,20.828
		c31.153,0,56.964,23.244,61.042,53.298c-23.27-16.174-55.37-28.672-92.382-16.336c-12.236,4.079-22.26,10-29.562,15.25
		C215.485,43.511,241.065,20.828,271.844,20.828z M210.224,138.198V93.003c4.559-4.303,17.388-15.239,35.578-21.166
		c29.266-9.539,58.745-2.292,87.661,21.521v44.84c0,33.977-27.642,61.62-61.619,61.62
		C237.867,199.818,210.224,172.175,210.224,138.198z M271.844,214.818c5.101,0,10.083-0.512,14.908-1.468v24.845h-29.824v-24.846
		C261.755,214.305,266.741,214.818,271.844,214.818z M174.029,312.046c0.103-24.577,7.462-41.893,21.877-51.474
		c10.923-7.261,22.23-7.387,22.356-7.387h18.904l-12.653,27.23c-0.46,0.99-0.698,2.068-0.698,3.16
		c0,7.651,4.752,14.203,11.456,16.89l-18.12,38.995c-0.46,0.99-0.698,2.068-0.698,3.16c0,5.885,2.552,11.172,6.589,14.858
		c-2.743,24.004-11.007,48.337-24.564,72.369h-7.673L174.029,312.046z M352.883,429.849h-7.672
		c-13.564-24.042-21.816-48.37-24.557-72.377c4.033-3.686,6.583-8.97,6.583-14.851c0-1.181-0.279-2.346-0.814-3.398l-19.439-38.241
		c7.453-2.279,12.89-9.218,12.89-17.405c0-1.181-0.279-2.346-0.814-3.398l-13.72-26.992h20.137h0.001
		c0.234,0,16.257,0.26,28.637,12.552c10.228,10.154,15.456,25.734,15.543,46.309L352.883,429.849z"/>
	<circle cx="271.844" cy="409.757" r="7.096"/>
	<circle cx="271.844" cy="388.387" r="7.096"/>
</g>
<g>
</g>
<g>
</g>
<g>
</g>
<g>
</g>
<g>
</g>
<g>
</g>
<g>
</g>
<g>
</g>
<g>
</g>
<g>
</g>
<g>
</g>
<g>
</g>
<g>
</g>
<g>
</g>
<g>
</g>
</svg>
